<?xml version="1.0" encoding="UTF-8"?>
<svg width="869px" height="226px" viewBox="0 0 869 226" version="1.1" xmlns="http://www.w3.org/2000/svg" xmlns:xlink="http://www.w3.org/1999/xlink">
    <!-- Generator: Sketch 58 (84663) - https://sketch.com -->
    <title>Artboard</title>
    <desc>Created with Sketch.</desc>
    <g id="Artboard" stroke="none" stroke-width="1" fill="none" fill-rule="evenodd">
        <g id="virus-outline-(1)" transform="translate(6.000000, 6.000000)">
            <path d="M107.003144,0 C97.5679671,0 89.9809173,7.62666667 89.9809173,17.1111111 C89.9809173,22.88 92.8990134,28.0622222 97.2761575,31.0933333 L97.2761575,44.7822222 C88.5218693,46.0533333 80.3512003,48.8888889 72.9586903,53.1911111 L62.1617349,37.6444444 C64.0098624,32.56 63.523513,26.6933333 60.2163375,22 C56.8118921,17.2088889 51.5593192,14.6666667 46.2094764,14.6666667 C42.805031,14.6666667 39.4005856,15.6444444 36.4824895,17.7955556 C28.7981699,23.1733333 26.8527725,33.8311111 32.2998852,41.5555556 C35.6070607,46.3466667 40.8596336,48.8888889 46.2094764,48.8888889 L57.6873209,65.3155556 C53.5047166,69.52 50.197541,74.2133333 47.3767148,79.3955556 C45.4313175,78.6133333 43.3886502,78.2222222 41.345983,78.2222222 C36.9688389,78.2222222 32.5916948,79.8844444 29.1872494,83.1111111 C22.6701682,89.9555556 22.6701682,100.711111 29.1872494,107.555556 C32.0080756,110.195556 35.412521,111.662222 38.9142362,112.444444 L38.9142362,112.444444 C38.9142362,117.724444 39.5951253,122.808889 40.6650939,127.697778 L27.9227411,131.12 C24.9073751,128.577778 21.0165804,127.111111 17.0285158,127.111111 C15.5694677,127.111111 14.0131498,127.111111 12.5541018,127.697778 C3.50800402,130.142222 -1.85156575,139.528889 0.589907955,148.72 C2.6325752,156.444444 9.73327562,161.333333 17.0285158,161.333333 C18.4875638,161.333333 19.9466118,161.333333 21.5029297,160.746667 C27.0473123,159.182222 31.2299166,155.075556 32.9807742,149.991111 L47.6685244,145.982222 C52.0456685,153.706667 57.8818607,160.551111 64.6907515,166.222222 L53.9910659,185.777778 C48.6412231,186.56 43.7777297,189.591111 40.9569035,194.773333 C36.4824895,203.084444 39.5951253,213.448889 47.8630642,217.946667 C50.3920808,219.315556 53.212907,220 55.9364633,220 C61.9671951,220 67.8033873,216.773333 70.9160231,211.004444 C73.6395794,205.92 73.5423095,200.053333 71.1105628,195.262222 L81.5184388,176 C89.3972981,179.128889 97.9570466,180.888889 107.003144,180.888889 C107.586764,180.888889 108.170383,180.888889 108.754002,180.888889 C107.489494,183.431111 107.003144,186.364444 107.003144,189.493333 C107.781303,198.488889 115.173813,205.333333 124.025371,205.333333 C124.414451,205.333333 124.9008,205.333333 125.28988,205.333333 C134.725057,204.551111 141.728488,196.337778 141.047598,186.951111 C140.658519,182.062222 138.226772,177.76 134.725057,174.924444 C139.296741,172.871111 143.673885,170.231111 147.759219,167.2 L170.520369,190.08 C169.54767,195.555556 171.103988,201.128889 175.092052,205.333333 C178.496498,208.56 182.873642,210.222222 187.250786,210.222222 C191.62793,210.222222 196.005074,208.56 199.40952,205.333333 C205.926601,198.488889 205.926601,187.733333 199.40952,180.888889 C196.005074,177.662222 191.62793,176 187.250786,176 C186.278087,176 185.305389,176 184.23542,176.293333 L161.474271,153.413333 C166.240494,147.057778 169.936749,139.822222 172.271226,132 L183.068182,132 C186.083548,136.4 191.238851,139.333333 196.977773,139.333333 C206.41295,139.333333 214,131.706667 214,122.222222 C214,112.737778 206.41295,105.111111 196.977773,105.111111 C191.238851,105.111111 186.083548,108.044444 183.068182,112.444444 L175.092052,112.444444 C175.092052,97.0933333 170.228559,83.1111111 161.474271,71.4755556 L174.508433,58.3733333 C175.578402,58.6666667 176.551101,58.6666667 177.523799,58.6666667 C181.900943,58.6666667 186.278087,57.0044444 189.682533,53.7777778 C196.199614,47.0311111 196.199614,36.1777778 189.682533,29.3333333 C186.278087,26.1066667 181.900943,24.4444444 177.523799,24.4444444 C173.146655,24.4444444 168.769511,26.1066667 165.365066,29.3333333 C161.377001,33.5377778 159.820683,39.1111111 160.793382,44.5866667 L147.759219,57.6888889 C138.810391,50.9422222 128.305246,46.4444444 116.730131,44.7822222 L116.730131,31.0933333 C121.107275,28.0622222 124.025371,22.88 124.025371,17.1111111 C124.025371,7.62666667 116.438322,0 107.003144,0 M107.557292,161.928934 C80.7939167,161.928934 59.0729167,139.915533 59.0729167,112.791878 C59.0729167,85.6682234 80.7939167,63.6548223 107.557292,63.6548223 C134.320667,63.6548223 156.041667,85.6682234 156.041667,112.791878 C156.041667,139.915533 134.320667,161.928934 107.557292,161.928934 M92.5104167,83.7563452 C84.4928472,83.7563452 78.0208333,90.2409475 78.0208333,98.2741117 C78.0208333,106.307276 84.4928472,112.791878 92.5104167,112.791878 C100.527986,112.791878 107,106.307276 107,98.2741117 C107,90.2409475 100.527986,83.7563452 92.5104167,83.7563452 M126.505208,121.725888 C121.294531,121.725888 117.03125,126.248731 117.03125,131.77665 C117.03125,137.304569 121.294531,141.827411 126.505208,141.827411 C131.715885,141.827411 135.979167,137.304569 135.979167,131.77665 C135.979167,126.248731 131.715885,121.725888 126.505208,121.725888 Z" id="Shape" fill="#C70000" fill-rule="nonzero"></path>
            <text id="COVID-19" font-family="Futura-Bold, Futura" font-size="120" font-weight="bold" letter-spacing="-2.4" fill="#8F8F8F">
                <tspan x="263" y="154">COVID-19</tspan>
            </text>
        </g>
    </g>
</svg>